# xmcd
#
# Track frame offsets:
#	150
#	14211
#	31279
#	44930
#	61534
#	81261
#	99229
#	116506
#	141306
#	161032
#
# Disc length: 2427 seconds
#
# Revision: 1
# Processed by: cddbd v1.5.2PL0 Copyright (c) Steve Scherf et al.
# Submitted via: audiograbber 1.83.01
#
DISCID=8709790a
DTITLE=Various Artist - Finest Bar Lounge Gold
DYEAR=2007
DGENRE=Lounge
TTITLE0=Chelsea Blue - tokyo moon
TTITLE1=10 Forward - Kisses from a star
TTITLE2=Nightcruzer - the time
TTITLE3=Frame by Frame - out of norway
TTITLE4=Nelja - lafayette
TTITLE5=Electrocat - deeper sin
TTITLE6=Comatrixx - sunrise cafe
TTITLE7=Bam Dorner - apfelsinenträume
TTITLE8=Home Office - coffeebreak
TTITLE9=Jey Pi - the unknown thing
EXTD=
EXTT0=
EXTT1=
EXTT2=
EXTT3=
EXTT4=
EXTT5=
EXTT6=
EXTT7=
EXTT8=
EXTT9=
PLAYORDER=
